<svg preserveAspectRatio="none" width="100%" height="100%" overflow="visible" style="display: block;" viewBox="0 0 15.9999 15.5597" fill="none" xmlns="http://www.w3.org/2000/svg">
<path id="Mask" fill-rule="evenodd" clip-rule="evenodd" d="M4.15059 1.19824C4.72482 1.19824 5.1906 1.64496 5.1906 2.19664C5.1906 2.7479 4.72482 3.19504 4.15059 3.19504C3.57636 3.19504 3.11058 2.7479 3.11058 2.19664C3.11058 1.64496 3.57636 1.19824 4.15059 1.19824ZM0.625941 2.79397H1.95929C2.23751 3.73733 3.13352 4.38885 4.15486 4.3897C5.1762 4.38885 6.07221 3.73733 6.35043 2.79397H15.3772C15.7207 2.79397 15.9994 2.52645 15.9994 2.19664C15.9994 1.86682 15.7207 1.5993 15.3772 1.5993H6.35043C6.01087 0.434929 4.75264 -0.244324 3.54019 0.081649C2.77307 0.287729 2.17395 0.862876 1.95929 1.5993H0.625941C0.282382 1.5993 0.00371355 1.86682 0.00371355 2.19664C0.00371355 2.52645 0.282382 2.79397 0.625941 2.79397ZM4.15053 14.3651C3.5763 14.3651 3.11052 13.9179 3.11052 13.3667C3.11052 12.8154 3.5763 12.3683 4.15053 12.3683C4.72476 12.3683 5.19054 12.8154 5.19054 13.3667C5.19054 13.9179 4.72476 14.3651 4.15053 14.3651ZM15.3781 12.7694H15.3772H6.35045C6.01089 11.6054 4.75266 10.9257 3.5402 11.2517C2.77309 11.4582 2.17397 12.0333 1.9593 12.7694H0.625959C0.2824 12.7694 0.0032869 13.0364 0.0032869 13.3663C0.00284246 13.6965 0.281511 13.964 0.62507 13.9644H0.625959H1.9593C2.23753 14.9074 3.13353 15.5589 4.15488 15.5597C5.17622 15.5589 6.07223 14.9074 6.35045 13.9644H15.3772C15.7207 13.9644 15.9994 13.6973 15.9999 13.3671C15.9999 13.0373 15.7216 12.7698 15.3781 12.7694ZM12.8886 7.78159C12.8886 7.23034 12.4228 6.78319 11.8486 6.78319C11.2739 6.78319 10.8081 7.23034 10.8081 7.78159C10.8081 8.33284 11.2739 8.77999 11.8486 8.77999C12.4228 8.77999 12.8886 8.33284 12.8886 7.78159ZM9.64853 8.37895H0.621784C0.278226 8.37895 5.29258e-07 8.11143 5.29258e-07 7.78204C-0.000442878 7.45223 0.277782 7.18428 0.621784 7.18428H9.64853C9.92675 6.24092 10.8228 5.58983 11.8437 5.58855C12.865 5.58983 13.7614 6.24092 14.0397 7.18428H15.373H15.3739C15.7175 7.18428 15.9957 7.45223 15.9957 7.78204C15.9952 8.11186 15.7166 8.37938 15.373 8.37895H14.0397C13.8246 9.11495 13.2259 9.69052 12.4588 9.8966C11.2463 10.2226 9.98764 9.5429 9.64853 8.37895Z" fill="var(--fill-0, #262C2F)"/>
</svg>
