<svg preserveAspectRatio="none" width="100%" height="100%" overflow="visible" style="display: block;" viewBox="0 0 16 13" fill="none" xmlns="http://www.w3.org/2000/svg">
<g id="Group 2343">
<rect id="Rectangle 5211" x="6" y="1" width="10" height="1" rx="0.5" fill="var(--fill-0, #262C2F)"/>
<rect id="Rectangle 5214" x="6" y="9" width="10" height="1" rx="0.5" fill="var(--fill-0, #262C2F)"/>
<rect id="Rectangle 5212" x="6" y="3" width="10" height="1" rx="0.5" fill="var(--fill-0, #262C2F)"/>
<rect id="Rectangle 5215" x="6" y="11" width="10" height="1" rx="0.5" fill="var(--fill-0, #262C2F)"/>
<path id="Vector" d="M1 8.5H4C4.27614 8.5 4.5 8.72386 4.5 9V12C4.5 12.2761 4.27614 12.5 4 12.5H1C0.723858 12.5 0.5 12.2761 0.5 12V9C0.5 8.72386 0.723858 8.5 1 8.5ZM1 0.5H4C4.27614 0.5 4.5 0.723858 4.5 1V4C4.5 4.27614 4.27614 4.5 4 4.5H1C0.723858 4.5 0.5 4.27614 0.5 4V1C0.5 0.723858 0.723858 0.5 1 0.5Z" stroke="var(--stroke-0, #262C2F)"/>
</g>
</svg>
