<svg preserveAspectRatio="none" width="100%" height="100%" overflow="visible" style="display: block;" viewBox="0 0 20 20" fill="none" xmlns="http://www.w3.org/2000/svg">
<path id="icon" d="M10.9736 19.8848L10.9795 19.9512C10.6572 19.9825 10.3305 20 10 20C9.66913 20 9.34215 19.9826 9.01953 19.9512L9.02637 19.8848L9.11621 18.957C9.40667 18.9853 9.70155 19 10 19C10.2985 19 10.5933 18.9853 10.8838 18.957L10.9736 19.8848ZM5.75781 17.9395C6.27281 18.2153 6.81732 18.443 7.38574 18.6152L7.24023 19.0928L7.10254 19.5508L7.0957 19.5703C6.46332 19.3787 5.85771 19.1261 5.28516 18.8193L5.52148 18.3799L5.75781 17.9395ZM14.4785 18.3799L14.7139 18.8193C14.1413 19.126 13.5358 19.3787 12.9033 19.5703L12.7588 19.0938V19.0928L12.6143 18.6152C13.1827 18.443 13.7272 18.2153 14.2422 17.9395L14.4785 18.3799ZM3.04199 15.709C3.41644 16.1647 3.83527 16.5836 4.29102 16.958L3.65527 17.7305C3.14913 17.3146 2.68438 16.85 2.26855 16.3438L2.65625 16.0264L3.04199 15.709ZM17.3438 16.0264L17.7305 16.3438C17.3146 16.85 16.85 17.3146 16.3438 17.7305L15.709 16.958C16.1647 16.5836 16.5836 16.1647 16.958 15.709L17.3438 16.0264ZM1.38477 12.6143C1.557 13.1827 1.78473 13.7272 2.06055 14.2422L1.61914 14.4775L1.62012 14.4785L1.17969 14.7139C0.873049 14.1413 0.620282 13.5357 0.428711 12.9033L0.90625 12.7588L1.38477 12.6143ZM19.5703 12.9033C19.3787 13.5358 19.126 14.1413 18.8193 14.7139L18.3799 14.4785V14.4775L17.9395 14.2422C18.2153 13.7272 18.443 13.1827 18.6152 12.6143L19.5703 12.9033ZM1.04297 9.11621C1.0147 9.40667 1 9.70155 1 10C1 10.2985 1.0147 10.5933 1.04297 10.8838L0.0478516 10.9795C0.0165201 10.6572 0 10.3305 0 10C0 9.66917 0.0164581 9.34212 0.0478516 9.01953L1.04297 9.11621ZM19.9512 9.01953C19.9826 9.34215 20 9.66913 20 10C20 10.3305 19.9825 10.6572 19.9512 10.9795L18.957 10.8838C18.9853 10.5933 19 10.2985 19 10C19 9.70155 18.9853 9.40667 18.957 9.11621L19.9512 9.01953ZM1.62012 5.52148H1.61914L2.06055 5.75781C1.78473 6.27281 1.557 6.81732 1.38477 7.38574L0.90625 7.24023L0.428711 7.0957C0.620333 6.46337 0.87301 5.85767 1.17969 5.28516L1.62012 5.52148ZM18.8193 5.28516C19.1261 5.85771 19.3787 6.46332 19.5703 7.0957L19.0938 7.24121L19.0928 7.24023L18.6152 7.38574C18.443 6.81732 18.2153 6.27281 17.9395 5.75781L18.3799 5.52148L18.8193 5.28516ZM3.65625 2.26953L4.29102 3.04199C3.83527 3.41644 3.41644 3.83527 3.04199 4.29102L2.26953 3.65625L2.26855 3.65527C2.68439 3.14914 3.14914 2.68439 3.65527 2.26855L3.65625 2.26953ZM16.3438 2.26855C16.85 2.68438 17.3146 3.14913 17.7305 3.65527V3.65625L16.958 4.29102C16.5836 3.83527 16.1647 3.41644 15.709 3.04199L16.3438 2.26953V2.26855ZM7.2041 0.786133L7.38574 1.38477C6.81732 1.557 6.27281 1.78473 5.75781 2.06055L5.40918 1.41113L5.28516 1.17969C5.85767 0.87301 6.46337 0.620333 7.0957 0.428711L7.2041 0.786133ZM12.9033 0.428711C13.5357 0.620282 14.1413 0.873049 14.7139 1.17969L14.5908 1.41113L14.2422 2.06055C13.7272 1.78473 13.1827 1.557 12.6143 1.38477L12.7959 0.786133L12.9033 0.428711ZM10 0C10.3305 0 10.6572 0.0165201 10.9795 0.0478516L10.8838 1.04297C10.5933 1.0147 10.2985 1 10 1C9.70155 1 9.40667 1.0147 9.11621 1.04297L9.01953 0.0478516C9.34212 0.0164581 9.66917 0 10 0Z" fill="var(--fill-0, #222222)"/>
</svg>
