<svg preserveAspectRatio="none" width="100%" height="100%" overflow="visible" style="display: block;" viewBox="0 0 15 12.8579" fill="none" xmlns="http://www.w3.org/2000/svg">
<g id="Vector">
<mask id="path-1-inside-1_0_6" fill="white">
<path d="M4.12957 0.157371C4.07981 0.107487 4.0207 0.067909 3.95562 0.0409046C3.89054 0.0139003 3.82078 0 3.75032 0C3.67986 0 3.61009 0.0139003 3.54502 0.0409046C3.47994 0.067909 3.42083 0.107487 3.37107 0.157371L0.15709 3.37135C0.0565071 3.47193 0 3.60835 0 3.7506C0 3.89285 0.0565071 4.02927 0.15709 4.12985C0.257674 4.23043 0.394094 4.28694 0.53634 4.28694C0.678586 4.28694 0.815006 4.23043 0.915589 4.12985L3.21466 1.82971V12.3212C3.21466 12.4633 3.27109 12.5995 3.37155 12.7C3.472 12.8004 3.60825 12.8569 3.75032 12.8569C3.89239 12.8569 4.02863 12.8004 4.12909 12.7C4.22955 12.5995 4.28598 12.4633 4.28598 12.3212V1.82971L6.58505 4.12985C6.68563 4.23043 6.82205 4.28694 6.9643 4.28694C7.10654 4.28694 7.24296 4.23043 7.34355 4.12985C7.44413 4.02927 7.50064 3.89285 7.50064 3.7506C7.50064 3.60835 7.44413 3.47193 7.34355 3.37135L4.12957 0.157371V0.157371ZM10.8768 12.7069C10.9767 12.8038 11.1104 12.8579 11.2496 12.8579C11.3888 12.8579 11.5225 12.8038 11.6224 12.7069L14.8364 9.60004C14.9387 9.50116 14.9975 9.3657 14.9999 9.22345C15.0023 9.08121 14.9481 8.94383 14.8493 8.84154C14.7504 8.73925 14.6149 8.68043 14.4727 8.67802C14.3304 8.67561 14.193 8.72981 14.0908 8.82869L11.7853 11.0581V0.537692C11.7853 0.395625 11.7288 0.259377 11.6284 0.158921C11.5279 0.0584647 11.3917 0.00202883 11.2496 0.00202883C11.1075 0.00202883 10.9713 0.0584647 10.8708 0.158921C10.7704 0.259377 10.7139 0.395625 10.7139 0.537692V11.0581L8.40845 8.82976C8.35807 8.78016 8.29837 8.74103 8.2328 8.71461C8.16723 8.6882 8.09708 8.67502 8.02639 8.67585C7.9557 8.67668 7.88587 8.69149 7.82093 8.71943C7.756 8.74737 7.69723 8.78788 7.64803 8.83864C7.59882 8.8894 7.56015 8.9494 7.53425 9.01518C7.50834 9.08095 7.49571 9.1512 7.49708 9.22188C7.49846 9.29256 7.51381 9.36227 7.54225 9.42699C7.57069 9.49171 7.61166 9.55016 7.6628 9.59897L10.8768 12.7058V12.7069Z"/>
</mask>
<path d="M4.12957 0.157371C4.07981 0.107487 4.0207 0.067909 3.95562 0.0409046C3.89054 0.0139003 3.82078 0 3.75032 0C3.67986 0 3.61009 0.0139003 3.54502 0.0409046C3.47994 0.067909 3.42083 0.107487 3.37107 0.157371L0.15709 3.37135C0.0565071 3.47193 0 3.60835 0 3.7506C0 3.89285 0.0565071 4.02927 0.15709 4.12985C0.257674 4.23043 0.394094 4.28694 0.53634 4.28694C0.678586 4.28694 0.815006 4.23043 0.915589 4.12985L3.21466 1.82971V12.3212C3.21466 12.4633 3.27109 12.5995 3.37155 12.7C3.472 12.8004 3.60825 12.8569 3.75032 12.8569C3.89239 12.8569 4.02863 12.8004 4.12909 12.7C4.22955 12.5995 4.28598 12.4633 4.28598 12.3212V1.82971L6.58505 4.12985C6.68563 4.23043 6.82205 4.28694 6.9643 4.28694C7.10654 4.28694 7.24296 4.23043 7.34355 4.12985C7.44413 4.02927 7.50064 3.89285 7.50064 3.7506C7.50064 3.60835 7.44413 3.47193 7.34355 3.37135L4.12957 0.157371V0.157371ZM10.8768 12.7069C10.9767 12.8038 11.1104 12.8579 11.2496 12.8579C11.3888 12.8579 11.5225 12.8038 11.6224 12.7069L14.8364 9.60004C14.9387 9.50116 14.9975 9.3657 14.9999 9.22345C15.0023 9.08121 14.9481 8.94383 14.8493 8.84154C14.7504 8.73925 14.6149 8.68043 14.4727 8.67802C14.3304 8.67561 14.193 8.72981 14.0908 8.82869L11.7853 11.0581V0.537692C11.7853 0.395625 11.7288 0.259377 11.6284 0.158921C11.5279 0.0584647 11.3917 0.00202883 11.2496 0.00202883C11.1075 0.00202883 10.9713 0.0584647 10.8708 0.158921C10.7704 0.259377 10.7139 0.395625 10.7139 0.537692V11.0581L8.40845 8.82976C8.35807 8.78016 8.29837 8.74103 8.2328 8.71461C8.16723 8.6882 8.09708 8.67502 8.02639 8.67585C7.9557 8.67668 7.88587 8.69149 7.82093 8.71943C7.756 8.74737 7.69723 8.78788 7.64803 8.83864C7.59882 8.8894 7.56015 8.9494 7.53425 9.01518C7.50834 9.08095 7.49571 9.1512 7.49708 9.22188C7.49846 9.29256 7.51381 9.36227 7.54225 9.42699C7.57069 9.49171 7.61166 9.55016 7.6628 9.59897L10.8768 12.7058V12.7069Z" fill="var(--fill-0, #BED62F)"/>
<path d="M3.95562 0.0409046L5.48869 -3.65365L3.95562 0.0409046ZM3.75032 0V-4V0ZM3.37107 0.157371L6.1995 2.9858L6.20307 2.98222L3.37107 0.157371ZM0.15709 3.37135L2.98552 6.19978V6.19978L0.15709 3.37135ZM0 3.7506H-4H0ZM0.915589 4.12985L3.74402 6.95828L3.74468 6.95762L0.915589 4.12985ZM3.21466 1.82971H7.21466V-7.83033L0.38557 -0.998056L3.21466 1.82971ZM3.21466 12.3212H7.21466H3.21466ZM4.28598 1.82971L7.11507 -0.998056L0.285982 -7.83033V1.82971H4.28598ZM6.58505 4.12985L3.75596 6.95762L3.75662 6.95828L6.58505 4.12985ZM7.50064 3.7506H11.5006H7.50064ZM7.34355 3.37135L10.172 0.542923V0.542923L7.34355 3.37135ZM10.8768 12.7069H6.87678V14.4004L8.09278 15.5791L10.8768 12.7069ZM11.6224 12.7069L8.84233 9.83093L8.83842 9.83472L11.6224 12.7069ZM14.8364 9.60004L17.6165 12.476V12.476L14.8364 9.60004ZM14.0908 8.82869L11.3107 5.95273L11.3102 5.95322L14.0908 8.82869ZM11.7853 11.0581H7.78527V20.4905L14.5659 13.9336L11.7853 11.0581ZM10.7139 11.0581L7.93404 13.9342L14.7139 20.4873V11.0581H10.7139ZM8.40845 8.82976L5.6022 11.6802L5.61531 11.6931L5.62854 11.7059L8.40845 8.82976ZM7.6628 9.59897L10.4429 6.72302L10.4338 6.71418L10.4246 6.7054L7.6628 9.59897ZM10.8768 12.7058H14.8768V11.0091L13.6569 9.82986L10.8768 12.7058ZM4.12957 0.157371L6.96157 -2.66748C6.54024 -3.08987 6.03973 -3.42499 5.48869 -3.65365L3.95562 0.0409046L2.42255 3.73545C2.00167 3.56081 1.61938 3.30484 1.29757 2.98222L4.12957 0.157371ZM3.95562 0.0409046L5.48869 -3.65365C4.93765 -3.8823 4.34692 -4 3.75032 -4V0V4C3.29464 4 2.84343 3.9101 2.42255 3.73545L3.95562 0.0409046ZM3.75032 0V-4C3.15372 -4 2.56299 -3.8823 2.01195 -3.65365L3.54502 0.0409046L5.07809 3.73545C4.6572 3.9101 4.206 4 3.75032 4V0ZM3.54502 0.0409046L2.01195 -3.65365C1.46091 -3.42499 0.960396 -3.08987 0.539069 -2.66748L3.37107 0.157371L6.20307 2.98222C5.88126 3.30484 5.49897 3.56081 5.07809 3.73545L3.54502 0.0409046ZM3.37107 0.157371L0.542642 -2.67106L-2.67134 0.542923L0.15709 3.37135L2.98552 6.19978L6.1995 2.9858L3.37107 0.157371ZM0.15709 3.37135L-2.67134 0.542923C-3.52207 1.39365 -4 2.54749 -4 3.7506H0H4C4 4.66922 3.63508 5.55022 2.98552 6.19978L0.15709 3.37135ZM0 3.7506H-4C-4 4.95371 -3.52207 6.10755 -2.67134 6.95828L0.15709 4.12985L2.98552 1.30142C3.63508 1.95098 4 2.83198 4 3.7506H0ZM0.15709 4.12985L-2.67134 6.95828C-1.82061 7.809 -0.66678 8.28694 0.53634 8.28694V4.28694V0.28694C1.45497 0.28694 2.33596 0.651865 2.98552 1.30142L0.15709 4.12985ZM0.53634 4.28694V8.28694C1.73946 8.28694 2.89329 7.809 3.74402 6.95828L0.915589 4.12985L-1.91284 1.30142C-1.26328 0.651865 -0.382287 0.28694 0.53634 0.28694V4.28694ZM0.915589 4.12985L3.74468 6.95762L6.04374 4.65748L3.21466 1.82971L0.38557 -0.998056L-1.9135 1.30208L0.915589 4.12985ZM3.21466 1.82971H-0.785344V12.3212H3.21466H7.21466V1.82971H3.21466ZM3.21466 12.3212H-0.785344C-0.785344 13.5241 -0.307482 14.6778 0.543121 15.5284L3.37155 12.7L6.19998 9.87156C6.84967 10.5212 7.21466 11.4024 7.21466 12.3212H3.21466ZM3.37155 12.7L0.543121 15.5284C1.39373 16.379 2.54739 16.8569 3.75032 16.8569V12.8569V8.85687C4.66911 8.85687 5.55028 9.22186 6.19998 9.87156L3.37155 12.7ZM3.75032 12.8569V16.8569C4.95324 16.8569 6.10691 16.379 6.95752 15.5284L4.12909 12.7L1.30066 9.87156C1.95036 9.22186 2.83153 8.85687 3.75032 8.85687V12.8569ZM4.12909 12.7L6.95752 15.5284C7.80812 14.6778 8.28598 13.5241 8.28598 12.3212H4.28598H0.285982C0.285982 11.4024 0.650976 10.5212 1.30066 9.87156L4.12909 12.7ZM4.28598 12.3212H8.28598V1.82971H4.28598H0.285982V12.3212H4.28598ZM4.28598 1.82971L1.4569 4.65748L3.75596 6.95762L6.58505 4.12985L9.41413 1.30208L7.11507 -0.998056L4.28598 1.82971ZM6.58505 4.12985L3.75662 6.95828C4.60735 7.809 5.76118 8.28694 6.9643 8.28694V4.28694V0.28694C7.88292 0.28694 8.76392 0.651865 9.41348 1.30142L6.58505 4.12985ZM6.9643 4.28694V8.28694C8.16742 8.28694 9.32125 7.809 10.172 6.95828L7.34355 4.12985L4.51512 1.30142C5.16468 0.651865 6.04567 0.28694 6.9643 0.28694V4.28694ZM7.34355 4.12985L10.172 6.95828C11.0227 6.10754 11.5006 4.9537 11.5006 3.7506H7.50064H3.50064C3.50064 2.83199 3.86555 1.95099 4.51512 1.30142L7.34355 4.12985ZM7.50064 3.7506H11.5006C11.5006 2.5475 11.0227 1.39366 10.172 0.542923L7.34355 3.37135L4.51512 6.19978C3.86555 5.55021 3.50064 4.66921 3.50064 3.7506H7.50064ZM7.34355 3.37135L10.172 0.542923L6.958 -2.67106L4.12957 0.157371L1.30114 2.9858L4.51512 6.19978L7.34355 3.37135ZM10.8768 12.7069L8.09278 15.5791C8.93895 16.3992 10.0711 16.8579 11.2496 16.8579V12.8579V8.85792C12.1497 8.85792 13.0145 9.20826 13.6608 9.83472L10.8768 12.7069ZM11.2496 12.8579V16.8579C12.4281 16.8579 13.5603 16.3992 14.4064 15.5791L11.6224 12.7069L8.83842 9.83472C9.48472 9.20826 10.3495 8.85792 11.2496 8.85792V12.8579ZM11.6224 12.7069L14.4025 15.5828L17.6165 12.476L14.8364 9.60004L12.0563 6.72409L8.84234 9.83093L11.6224 12.7069ZM14.8364 9.60004L17.6165 12.476C18.4815 11.6398 18.979 10.4942 18.9993 9.29124L14.9999 9.22345L11.0005 9.15567C11.0161 8.2372 11.3959 7.36253 12.0563 6.72409L14.8364 9.60004ZM14.9999 9.22345L18.9993 9.29124C19.0197 8.08828 18.5614 6.92649 17.7252 6.06145L14.8493 8.84154L11.9733 11.6216C11.3349 10.9612 10.9849 10.0741 11.0005 9.15567L14.9999 9.22345ZM14.8493 8.84154L17.7252 6.06145C16.889 5.19642 15.7434 4.69899 14.5405 4.6786L14.4727 8.67802L14.4049 12.6774C13.4864 12.6619 12.6118 12.2821 11.9733 11.6216L14.8493 8.84154ZM14.4727 8.67802L14.5405 4.6786C13.3375 4.65821 12.1757 5.11654 11.3107 5.95273L14.0908 8.82869L16.8708 11.7046C16.2104 12.3431 15.3234 12.693 14.4049 12.6774L14.4727 8.67802ZM14.0908 8.82869L11.3102 5.95322L9.00467 8.18265L11.7853 11.0581L14.5659 13.9336L16.8714 11.7042L14.0908 8.82869ZM11.7853 11.0581H15.7853V0.537692H11.7853H7.78527V11.0581H11.7853ZM11.7853 0.537692H15.7853C15.7853 -0.665234 15.3074 -1.8189 14.4568 -2.66951L11.6284 0.158921L8.79995 2.98735C8.15025 2.33765 7.78527 1.45648 7.78527 0.537692H11.7853ZM11.6284 0.158921L14.4568 -2.66951C13.6062 -3.52011 12.4525 -3.99797 11.2496 -3.99797V0.00202883V4.00203C10.3308 4.00203 9.44964 3.63704 8.79995 2.98735L11.6284 0.158921ZM11.2496 0.00202883V-3.99797C10.0467 -3.99797 8.89301 -3.52011 8.04241 -2.66951L10.8708 0.158921L13.6993 2.98735C13.0496 3.63704 12.1684 4.00203 11.2496 4.00203V0.00202883ZM10.8708 0.158921L8.04241 -2.66951C7.1918 -1.8189 6.71394 -0.665234 6.71394 0.537692H10.7139H14.7139C14.7139 1.45648 14.349 2.33765 13.6993 2.98735L10.8708 0.158921ZM10.7139 0.537692H6.71394V11.0581H10.7139H14.7139V0.537692H10.7139ZM10.7139 11.0581L13.4938 8.18198L11.1883 5.95363L8.40845 8.82976L5.62854 11.7059L7.93404 13.9342L10.7139 11.0581ZM8.40845 8.82976L11.2147 5.97932C10.7881 5.55939 10.2827 5.22802 9.72744 5.00435L8.2328 8.71461L6.73816 12.4249C6.31406 12.254 5.92799 12.0009 5.6022 11.6802L8.40845 8.82976ZM8.2328 8.71461L9.72744 5.00435C9.17219 4.78067 8.57818 4.66913 7.97965 4.67612L8.02639 8.67585L8.07312 12.6756C7.61597 12.6809 7.16227 12.5957 6.73816 12.4249L8.2328 8.71461ZM8.02639 8.67585L7.97965 4.67612C7.3811 4.68312 6.78986 4.80852 6.24001 5.0451L7.82093 8.71943L9.40186 12.3938C8.98189 12.5745 8.5303 12.6702 8.07312 12.6756L8.02639 8.67585ZM7.82093 8.71943L6.24001 5.0451C5.69015 5.28168 5.19257 5.62476 4.77594 6.05456L7.64803 8.83864L10.5201 11.6227C10.2019 11.951 9.82184 12.2131 9.40186 12.3938L7.82093 8.71943ZM7.64803 8.83864L4.77594 6.05456C4.35932 6.48435 4.03188 6.99236 3.81252 7.54932L7.53425 9.01518L11.256 10.481C11.0884 10.9064 10.8383 11.2945 10.5201 11.6227L7.64803 8.83864ZM7.53425 9.01518L3.81252 7.54932C3.59315 8.10628 3.48621 8.70114 3.49784 9.2996L7.49708 9.22188L11.4963 9.14417C11.5052 9.60127 11.4235 10.0556 11.256 10.481L7.53425 9.01518ZM7.49708 9.22188L3.49784 9.2996C3.50947 9.89806 3.63944 10.4883 3.88028 11.0363L7.54225 9.42699L11.2042 7.81765C11.3882 8.23623 11.4874 8.68706 11.4963 9.14417L7.49708 9.22188ZM7.54225 9.42699L3.88028 11.0363C4.12112 11.5844 4.46805 12.0793 4.90105 12.4925L7.6628 9.59897L10.4246 6.7054C10.7553 7.02106 11.0203 7.39907 11.2042 7.81765L7.54225 9.42699ZM7.6628 9.59897L4.88271 12.4749L8.09669 15.5818L10.8768 12.7058L13.6569 9.82986L10.4429 6.72302L7.6628 9.59897ZM10.8768 12.7058H6.87678V12.7069H10.8768H14.8768V12.7058H10.8768Z" fill="var(--stroke-0, #BED62F)" mask="url(#path-1-inside-1_0_6)"/>
</g>
</svg>
