<svg width="16" height="16" viewBox="0 0 16 16" fill="none" xmlns="http://www.w3.org/2000/svg">
<g clip-path="url(#clip0_5226_2521)">
<path d="M7.9998 0C6.8614 0 5.7802 0.2416 4.7998 0.67V15.3296C5.7802 15.7584 6.8614 16 7.9998 16C9.1382 16 10.2194 15.7584 11.1998 15.33V0.67C10.2194 0.2416 9.1382 0 7.9998 0Z" fill="white"/>
<path d="M11.2002 0.669983V15.3296C14.0246 14.0948 16.0002 11.2796 16.0002 7.99998C16.0002 4.72038 14.0246 1.90518 11.2002 0.669983Z" fill="#FF3D00"/>
<path d="M0 7.99998C0 11.2796 1.9756 14.0948 4.8 15.33V0.669983C1.9756 1.90518 0 4.72038 0 7.99998Z" fill="#689F38"/>
</g>
<defs>
<clipPath id="clip0_5226_2521">
<rect width="16" height="16" fill="white"/>
</clipPath>
</defs>
</svg>
