<svg width="24" height="24" viewBox="0 0 24 24" fill="none" xmlns="http://www.w3.org/2000/svg">
<path d="M11.9936 19.4773C11.8351 19.4773 11.6702 19.471 11.5116 19.4647C7.38896 19.2046 4.24939 15.6339 4.51577 11.5114C4.64262 9.51351 5.54328 7.68692 7.04012 6.36771C8.5433 5.0485 10.4714 4.3889 12.463 4.51575C14.4609 4.64259 16.2875 5.54321 17.6068 7.04C18.926 8.53679 19.5856 10.4649 19.4588 12.4627C19.2051 16.4203 15.907 19.4773 11.9936 19.4773ZM11.9746 5.19438C10.3255 5.19438 8.74624 5.78422 7.49676 6.88778C6.13312 8.08649 5.32127 9.74184 5.2071 11.5494C4.96609 15.285 7.81388 18.5196 11.5496 18.7607C11.6955 18.767 11.8414 18.7733 11.9873 18.7733C15.5328 18.7733 18.5264 16.0081 18.7611 12.4183C19.0021 8.68267 16.1543 5.44807 12.4186 5.20706C12.2727 5.20072 12.1205 5.19438 11.9746 5.19438Z" fill="#262C2F"/>
<path d="M6.78686 17.2258C6.68538 17.2258 6.58388 17.1814 6.51411 17.099C6.39361 16.9531 6.41265 16.7311 6.56487 16.6043C8.03 15.3992 8.90526 13.6868 9.02576 11.7968C9.14627 9.9004 8.49935 8.09917 7.19913 6.7102C7.06593 6.57067 7.07226 6.34869 7.21179 6.2155C7.35133 6.08231 7.57334 6.08865 7.70653 6.22818C9.12091 7.73132 9.85664 9.77355 9.72344 11.8348C9.59025 13.8961 8.60083 15.8305 7.00885 17.137C6.94542 17.2004 6.86297 17.2258 6.78686 17.2258Z" fill="#262C2F"/>
<path d="M16.5224 17.8474C16.4272 17.8474 16.3384 17.8093 16.2687 17.7395C14.8543 16.2364 14.1185 14.1942 14.2517 12.1329C14.3849 10.0716 15.3744 8.13723 16.9664 6.83071C17.1122 6.7102 17.3342 6.72923 17.4611 6.88145C17.5816 7.02732 17.5625 7.2493 17.4103 7.37615C15.9452 8.5812 15.0699 10.2936 14.9494 12.1836C14.8289 14.08 15.4759 15.8812 16.7761 17.2702C16.9093 17.4097 16.9029 17.6317 16.7634 17.7649C16.6936 17.8156 16.6048 17.8474 16.5224 17.8474Z" fill="#262C2F"/>
<path d="M11.5303 19.4583C11.5239 19.4583 11.5176 19.4583 11.5049 19.4583C11.3146 19.4456 11.1687 19.2807 11.1814 19.0841L12.0884 4.83286C12.1011 4.64259 12.266 4.49672 12.4626 4.50941C12.6529 4.52209 12.7988 4.68699 12.7861 4.8836L11.8791 19.1349C11.8664 19.3188 11.7142 19.4583 11.5303 19.4583Z" fill="#262C2F"/>
<path d="M19.1096 12.7925C19.1033 12.7925 19.0969 12.7925 19.0842 12.7925L4.83889 11.8792C4.64862 11.8665 4.50273 11.7016 4.51542 11.505C4.5281 11.3147 4.693 11.1689 4.88962 11.1816L19.1413 12.0885C19.3316 12.1012 19.4775 12.2661 19.4648 12.4627C19.4458 12.6466 19.2935 12.7925 19.1096 12.7925Z" fill="#262C2F"/>
</svg>
