<svg preserveAspectRatio="none" width="100%" height="100%" overflow="visible" style="display: block;" viewBox="0 0 16.0002 16" fill="none" xmlns="http://www.w3.org/2000/svg">
<g id="Group 3789">
<path id="Vector" d="M8 0C6.8616 0 5.7804 0.2416 4.8 0.67V15.3296C5.7804 15.7584 6.8616 16 8 16C9.1384 16 10.2196 15.7584 11.2 15.33V0.67C10.2196 0.2416 9.1384 0 8 0Z" fill="var(--fill-0, white)"/>
<path id="Vector_2" d="M11.2 0.669995V15.3296C14.0244 14.0948 16 11.2796 16 8C16 4.7204 14.0244 1.9052 11.2 0.669995Z" fill="var(--fill-0, #FF3D00)"/>
<path id="Vector_3" d="M0 8C0 11.2796 1.9756 14.0948 4.8 15.33V0.669995C1.9756 1.9052 0 4.7204 0 8Z" fill="var(--fill-0, #689F38)"/>
</g>
</svg>
